<?xml version="1.0" encoding="utf-8"?>
<!-- Generator: Adobe Illustrator 24.1.2, SVG Export Plug-In . SVG Version: 6.00 Build 0)  -->
<svg version="1.1" id="Layer_1" xmlns="http://www.w3.org/2000/svg" xmlns:xlink="http://www.w3.org/1999/xlink" x="0px" y="0px"
	 viewBox="0 0 300 300" style="enable-background:new 0 0 300 300;" xml:space="preserve">
<style type="text/css">
	.st0{fill:none;stroke:#000000;stroke-width:10;stroke-miterlimit:10;}
</style>
<g>
	<g>
		<line class="st0" x1="30.53" y1="61.93" x2="30.53" y2="231.05"/>
		<g>
			<path d="M11.73,62.87c0-10.38,8.42-18.8,18.8-18.8s18.8,8.42,18.8,18.8c0,10.38-8.42,18.8-18.8,18.8S11.73,73.25,11.73,62.87z"/>
		</g>
		<g>
			<path d="M11.73,230.11c0,10.38,8.42,18.8,18.8,18.8s18.8-8.42,18.8-18.8c0-10.38-8.42-18.8-18.8-18.8S11.73,219.73,11.73,230.11z
				"/>
		</g>
	</g>
</g>
<g>
	<g>
		<line class="st0" x1="269.47" y1="101.82" x2="269.47" y2="191.15"/>
		<g>
			<path d="M250.67,102.76c0-10.38,8.42-18.8,18.8-18.8s18.8,8.42,18.8,18.8c0,10.38-8.42,18.8-18.8,18.8
				S250.67,113.14,250.67,102.76z"/>
		</g>
		<g>
			<path d="M250.67,190.21c0,10.38,8.42,18.8,18.8,18.8s18.8-8.42,18.8-18.8c0-10.38-8.42-18.8-18.8-18.8
				S250.67,179.83,250.67,190.21z"/>
		</g>
	</g>
</g>
<line class="st0" x1="30.53" y1="63.94" x2="269.47" y2="102.14"/>
<line class="st0" x1="30.53" y1="230.71" x2="269.47" y2="190.52"/>
</svg>
